<svg xmlns="http://www.w3.org/2000/svg" viewBox="0 0 180 40" fill="none">
  <path d="M8 30C8 30 12 34 20 34C28 34 32 30 32 30" stroke="#d97706" stroke-width="2" stroke-linecap="round"/>
  <path d="M6 24C6 24 8 30 12 30C16 30 18 26 20 26C22 26 24 30 28 30C32 30 34 24 34 24" stroke="#d97706" stroke-width="2" stroke-linecap="round"/>
  <path d="M4 18C4 18 6 24 10 24C14 24 16 20 20 20C24 20 26 24 30 24C34 24 36 18 36 18" stroke="#d97706" stroke-width="2" stroke-linecap="round"/>
  <circle cx="20" cy="10" r="4" fill="#d97706" opacity="0.3"/>
  <text x="44" y="26" font-family="system-ui, sans-serif" font-size="18" font-weight="700" fill="#f5f5f5" letter-spacing="-0.3">Campus</text>
  <text x="110" y="26" font-family="system-ui, sans-serif" font-size="18" font-weight="300" fill="#d97706" letter-spacing="-0.3">Pots</text>
</svg>
